# xmcd
#
# Track frame offsets: 
#        150
#        11932
#        25452
#        40411
#        54980
#        69159
#        83163
#        96251
#        110729
#        124904
#        136268
#        149137
#        163019
#        176132
#        188196
#        202420
#        216215
#        228917
#        243587
#        262147
#        274807
#        289111
#        303126
#        316072
#
# Disc length: 4395 seconds
#
# Revision: 0
# Processed by: cddbd v1.5.2PL0 Copyright (c) Steve Scherf et al.
# Submitted via: ExactAudioCopyFreeDBPlugin 1.0
#
DISCID=76112918
DTITLE=Spirit of Memphis Quartet - Happy In The Name Of The Lord disc1
DYEAR=1900
DGENRE=
TTITLE0=I'm Happy In The Name Of Lord
TTITLE1=My Life Is In His Hands
TTITLE2=Happy In The Service of The Lord
TTITLE3=How Many Times
TTITLE4=On The Battlefield
TTITLE5=The Day Is Passed and Gone
TTITLE6=He Never Left Me Alone
TTITLE7=Blessed Are The Dead
TTITLE8=If Jesus Had To Pray
TTITLE9=Jesus, Jesus
TTITLE10=I'll Never Forget
TTITLE11=Calvary
TTITLE12=How Far Am I From Cannan
TTITLE13=Maek More Room For Jesus
TTITLE14=Automobile to Glory
TTITLE15=If You Make Me A Start To Heaven (Don't Turn Around)
TTITLE16=God's Got His Eyes On You
TTITLE17=I'll Go
TTITLE18=Everyday And Everyhour
TTITLE19=Everytime I Feel The Spirit
TTITLE20=World Prayer
TTITLE21=Sign Of The Judgement
TTITLE22=That Awful Day
TTITLE23=Tell Heaven I'm Coming
EXTD=
EXTT0=
EXTT1=
EXTT2=
EXTT3=
EXTT4=
EXTT5=
EXTT6=
EXTT7=
EXTT8=
EXTT9=
EXTT10=
EXTT11=
EXTT12=
EXTT13=
EXTT14=
EXTT15=
EXTT16=
EXTT17=
EXTT18=
EXTT19=
EXTT20=
EXTT21=
EXTT22=
EXTT23=
PLAYORDER=
